#!OML:ASF F:\VICON\USERDATA\INSTALL\rory3\rory3.ASF
:FULLY-SPECIFIED
:DEGREES
393
root 15.1564 17.9517 12.0357 134.795 85.6709 138.303
lowerback 12.1937 2.95892 -1.4494
upperback 1.34384 3.72562 -1.37108
thorax -5.41595 1.88025 -1.24432
lowerneck -18.9607 -5.52842 -11.451
upperneck 32.843 -5.40836 6.11206
head 15.1968 -2.59315 3.61848
rclavicle 4.83357e-014 -1.69961e-014
rhumerus -26.9939 -8.80887 -84.5405
rradius 34.7473
rwrist 3.63865
rhand -13.9165 9.24248
rfingers 7.12502
rthumb 12.2097 -20.3812
lclavicle 4.83357e-014 -1.69961e-014
lhumerus -38.1488 11.0592 78.9634
lradius 24.3179
lwrist -12.4866
lhand -16.2667 25.4204
lfingers 7.12502
lthumb 9.94291 55.1656
rfemur -3.45947 -0.366103 17.5586
rtibia 59.1729
rfoot 9.77729 2.04253
rtoes 3.24825
lfemur -9.97713 1.01392 -26.6452
ltibia 13.3308
lfoot 3.16064 -7.12829
ltoes 5.36541
394
root 15.2911 17.9574 12.0073 130.064 85.3351 133.848
lowerback 12.4504 2.93452 -1.89273
upperback 1.40198 3.62761 -1.45593
thorax -5.51948 1.8424 -1.08204
lowerneck -18.8678 -5.49104 -11.4326
upperneck 32.8661 -5.31434 5.96767
head 15.1699 -2.57154 3.57303
rclavicle 3.06812e-014 -1.83876e-014
rhumerus -27.2096 -8.61469 -84.6654
rradius 34.8531
rwrist 3.8992
rhand -13.8008 9.53961
rfingers 7.12502
rthumb 12.3211 -20.0774
lclavicle 3.06812e-014 -1.83876e-014
lhumerus -37.7946 10.2442 79.5711
lradius 24.425
lwrist -12.1248
lhand -16.1395 25.5018
lfingers 7.12502
lthumb 10.0655 55.2411
rfemur -4.60895 -0.854769 16.695
rtibia 61.2045
rfoot 8.80471 1.99434
rtoes 2.01641
lfemur -9.00392 0.861898 -27.2528
ltibia 13.0702
lfoot 2.75992 -6.86946
ltoes 4.45856
395
root 15.4249 17.9627 11.98 126.944 85.14 130.979
lowerback 12.649 2.93713 -2.20492
upperback 1.47039 3.5869 -1.45698
thorax -5.57638 1.83034 -0.91079
lowerneck -18.8075 -5.46033 -11.4228
upperneck 32.9331 -5.21985 5.81954
head 15.1717 -2.55058 3.52906
rclavicle -5.42061e-014 2.26615e-014
rhumerus -27.2771 -8.46114 -84.7461
rradius 34.7601
rwrist 4.2621
rhand -13.8764 9.88812
rfingers 7.12502
rthumb 12.2483 -19.7332
lclavicle -5.42061e-014 2.26615e-014
lhumerus -37.4113 9.47933 80.2033
lradius 24.5633
lwrist -11.7944
lhand -16.0725 25.5502
lfingers 7.12502
lthumb 10.1303 55.2863
rfemur -5.79008 -1.23581 16.0948
rtibia 63.0501
rfoot 7.69586 1.38556
rtoes 1.60223
lfemur -8.06904 1.04606 -27.6746
ltibia 12.7767
lfoot 2.32025 -6.95274
ltoes 3.16882
396
root 15.559 17.965 11.9553 124.444 84.8914 128.693
lowerback 12.7685 2.88634 -2.57146
upperback 1.56044 3.47157 -1.43487
thorax -5.56985 1.78303 -0.666111
lowerneck -18.7443 -5.38667 -11.4225
upperneck 32.9175 -5.05643 5.65486
head 15.126 -2.50487 3.48942
rclavicle 1.36641e-014 -1.24737e-014
rhumerus -27.2366 -8.13789 -84.7806
rradius 34.6145
rwrist 4.64572
rhand -14.0484 9.99139
rfingers 7.12502
rthumb 12.0824 -19.6398
lclavicle 1.36641e-014 -1.24737e-014
lhumerus -36.9464 8.94685 80.7785
lradius 24.6098
lwrist -11.5515
lhand -16.3307 25.7167
lfingers 7.12502
lthumb 9.88107 55.4648
rfemur -6.93138 -1.39973 15.5912
rtibia 64.6863
rfoot 6.41164 0.431521
rtoes 3.0746
lfemur -7.18645 1.30387 -28.1073
ltibia 12.5036
lfoot 1.98171 -7.00789
ltoes 3.83798
397
root 15.6916 17.9698 11.9323 122.856 84.6264 127.245
lowerback 12.863 2.83175 -2.8484
upperback 1.59293 3.35842 -1.46737
thorax -5.60031 1.73411 -0.529491
lowerneck -18.6157 -5.35241 -11.4995
upperneck 32.8631 -4.99472 5.66141
head 15.0675 -2.48833 3.51634
rclavicle 2.6865e-015 2.72583e-014
rhumerus -27.3185 -8.11659 -84.7819
rradius 34.5501
rwrist 5.0505
rhand -14.183 9.79647
rfingers 7.12502
rthumb 11.9526 -19.8423
lclavicle 2.6865e-015 2.72583e-014
lhumerus -36.5227 8.23013 81.2818
lradius 24.6491
lwrist -11.3372
lhand -17.2338 26.0894
lfingers 7.12502
lthumb 9.00971 55.877
rfemur -8.12873 -1.67196 15.1334
rtibia 66.1339
rfoot 5.22218 -0.408291
rtoes 3.16772
lfemur -6.45143 1.40097 -28.4921
ltibia 12.3415
lfoot 1.68944 -6.95928
ltoes 5.12547
398
root 15.8236 17.9745 11.9092 122.97 84.5736 127.504
lowerback 12.9365 2.75351 -2.91027
upperback 1.60775 3.2466 -1.41187
thorax -5.63023 1.68108 -0.420091
lowerneck -18.5681 -5.29943 -11.5019
upperneck 32.9706 -4.8877 5.59011
head 15.0929 -2.45255 3.51133
rclavicle 5.43117e-014 -1.83876e-015
rhumerus -27.4769 -8.29535 -84.7462
rradius 34.5346
rwrist 5.53592
rhand -14.018 9.89149
rfingers 7.12502
rthumb 12.1117 -19.7379
lclavicle 5.43117e-014 -1.83876e-015
lhumerus -36.1215 8.02406 81.5134
lradius 24.6432
lwrist -11.6764
lhand -17.6824 26.1206
lfingers 7.12502
lthumb 8.57685 55.9264
rfemur -9.28806 -2.1611 14.9735
rtibia 67.353
rfoot 4.23353 -1.2008
rtoes 1.37495
lfemur -5.79353 1.3894 -28.6022
ltibia 12.3296
lfoot 1.1681 -7.00077
ltoes 3.36092
399
root 15.9561 17.977 11.885 123.407 84.5829 128.04
lowerback 12.8928 2.64365 -2.93132
upperback 1.64373 3.10601 -1.30792
thorax -5.57241 1.61278 -0.270598
lowerneck -18.6642 -5.24715 -11.4376
upperneck 33.2079 -4.73739 5.3858
head 15.2015 -2.40818 3.44947
rclavicle -2.27671e-015 9.93923e-017
rhumerus -27.597 -8.23803 -84.767
rradius 34.5132
rwrist 5.82846
rhand -14.1455 10.0152
rfingers 7.12502
rthumb 11.9888 -19.6215
lclavicle -2.27671e-015 9.93923e-017
lhumerus -35.6556 8.07326 81.6536
lradius 24.6204
lwrist -12.0951
lhand -16.7663 25.5792
lfingers 7.12502
lthumb 9.46083 55.3468
rfemur -10.4531 -2.56774 14.9118
rtibia 68.37
rfoot 3.54013 -2.10967
rtoes 0.564672
lfemur -5.22418 1.21798 -28.6571
ltibia 12.3976
lfoot 0.568526 -6.83817
ltoes 1.29378
400
root 16.0876 17.9813 11.8612 123.867 84.5905 128.617
lowerback 12.8599 2.51408 -2.89638
upperback 1.70317 2.94669 -1.23475
thorax -5.49016 1.53399 -0.181487
lowerneck -18.6882 -5.18104 -11.3206
upperneck 33.2972 -4.5928 5.16133
head 15.2221 -2.36353 3.36341
rclavicle -1.06878e-014 6.11263e-015
rhumerus -27.7133 -8.04306 -84.8607
rradius 34.4885
rwrist 5.85353
rhand -14.5462 9.9452
rfingers 7.12502
rthumb 11.6024 -19.7136
lclavicle -1.06878e-014 6.11263e-015
lhumerus -35.2235 8.15268 81.7895
lradius 24.7189
lwrist -12.506
lhand -16.109 25.0482
lfingers 7.12502
lthumb 10.095 54.786
rfemur -11.5171 -2.84124 14.8659
rtibia 69.1648
rfoot 3.13914 -3.01335
rtoes 0.506928
lfemur -4.65423 1.04532 -28.6955
ltibia 12.5032
lfoot 0.0885933 -6.51835
ltoes 1.42905
401
root 16.2198 17.9844 11.8388 124.195 84.4798 129.056
lowerback 12.8149 2.36952 -2.96062
upperback 1.77392 2.75447 -1.1753
thorax -5.39228 1.44102 -0.0449904
lowerneck -18.6913 -5.12323 -11.4461
upperneck 33.3332 -4.46198 5.16802
head 15.2307 -2.32397 3.41397
rclavicle -8.5788e-015 6.26172e-015
rhumerus -27.8267 -7.95534 -84.8516
rradius 34.4295
rwrist 5.86898
rhand -14.3974 9.99701
rfingers 7.12502
rthumb 11.7459 -19.6537
lclavicle -8.5788e-015 6.26172e-015
lhumerus -34.8329 8.00598 82.0857
lradius 24.963
lwrist -12.6343
lhand -16.4992 25.3906
lfingers 7.12502
lthumb 9.71857 55.1463
rfemur -12.5512 -3.18733 14.715
rtibia 69.7849
rfoot 2.73526 -3.74354
rtoes 0.389912
lfemur -4.11275 0.844508 -28.8599
ltibia 12.672
lfoot -0.445798 -6.22433
ltoes 0.92343
402
root 16.351 17.9856 11.8171 124.976 84.2511 129.93
lowerback 12.7823 2.22715 -3.0767
upperback 1.82072 2.55646 -1.11656
thorax -5.32765 1.34616 0.119128
lowerneck -18.677 -5.09413 -11.5199
upperneck 33.3952 -4.36511 5.10104
head 15.2478 -2.30202 3.41868
rclavicle 5.55355e-015 2.08724e-015
rhumerus -27.9627 -8.32611 -84.676
rradius 34.3563
rwrist 6.0248
rhand -14.0537 10.0317
rfingers 7.12502
rthumb 12.0773 -19.5998
lclavicle 5.55355e-015 2.08724e-015
lhumerus -34.4502 7.69142 82.4464
lradius 25.2406
lwrist -12.448
lhand -16.9069 25.8955
lfingers 7.12502
lthumb 9.32513 55.6692
rfemur -13.5962 -3.67098 14.4842
rtibia 70.2484
rfoot 2.27059 -4.26384
rtoes -0.269358
lfemur -3.61628 0.127609 -29.1109
ltibia 12.9398
lfoot -0.856908 -5.47535
ltoes 1.05988
